<svg width="21" height="22" viewBox="0 0 21 22" fill="none" xmlns="http://www.w3.org/2000/svg">
<path fill-rule="evenodd" clip-rule="evenodd" d="M14.4375 2.75C12.915 2.75 11.4538 3.4925 10.5 4.66583C9.54625 3.4925 8.085 2.75 6.5625 2.75C3.8675 2.75 1.75 4.96833 1.75 7.79167C1.75 11.2567 4.725 14.08 9.23125 18.37L10.5 19.5708L11.7687 18.3608C16.275 14.08 19.25 11.2567 19.25 7.79167C19.25 4.96833 17.1325 2.75 14.4375 2.75ZM10.5875 17.0042L10.5 17.0958L10.4125 17.0042C6.2475 13.0533 3.5 10.4408 3.5 7.79167C3.5 5.95833 4.8125 4.58333 6.5625 4.58333C7.91 4.58333 9.2225 5.49083 9.68625 6.74667H11.3225C11.7775 5.49083 13.09 4.58333 14.4375 4.58333C16.1875 4.58333 17.5 5.95833 17.5 7.79167C17.5 10.4408 14.7525 13.0533 10.5875 17.0042Z" fill="#333333"/>
</svg>
