<svg width="23" height="22" viewBox="0 0 23 22" fill="none" xmlns="http://www.w3.org/2000/svg">
<path d="M6.40171 1.78256L4.75226 0.169231C1.98395 2.23385 0.161484 5.41538 0 9.02564H2.30692C2.47994 6.0359 4.04865 3.41846 6.40171 1.78256ZM20.6931 9.02564H23C22.827 5.41538 21.0045 2.23385 18.2477 0.169231L16.6098 1.78256C18.9398 3.41846 20.5201 6.0359 20.6931 9.02564ZM18.4208 9.58974C18.4208 6.12615 16.5291 3.22667 13.2302 2.45949V1.69231C13.2302 0.755897 12.4574 0 11.5 0C10.5426 0 9.76981 0.755897 9.76981 1.69231V2.45949C6.45938 3.22667 4.57924 6.11487 4.57924 9.58974V15.2308L2.27232 17.4872V18.6154H20.7277V17.4872L18.4208 15.2308V9.58974ZM11.5 22C11.6615 22 11.8114 21.9887 11.9614 21.9549C12.7111 21.7969 13.3225 21.3005 13.6224 20.6236C13.7377 20.3528 13.7954 20.0595 13.7954 19.7436H9.18155C9.19308 20.9846 10.2197 22 11.5 22Z" fill="#F4DB71"/>
</svg>
